<svg width="500" height="113" viewBox="0 0 500 113" fill="none" xmlns="http://www.w3.org/2000/svg">
<path d="M12.1143 5.77373L52.036 98.5158L92.1038 5.77373H104.297V110.857H95.1576V65.1005L95.9002 18.1835L55.6072 110.856H48.5428L8.40135 18.546L9.14393 64.8116V110.857H0V5.77373H12.1143Z" fill="#003E92"/>
<path d="M161.553 112.304C155.039 112.391 148.625 110.694 143.006 107.397C137.501 104.147 133.029 99.404 130.108 93.7175C126.979 87.6413 125.394 80.8881 125.494 74.0543V70.9478C125.384 63.9295 126.924 56.9836 129.99 50.6695C132.786 44.8829 137.118 39.9759 142.513 36.4845C147.681 33.098 153.73 31.3029 159.909 31.3216C169.67 31.3216 177.413 34.5581 183.139 41.0312C188.864 47.5043 191.727 56.345 191.727 67.5534V72.3868H134.341V74.0477C134.341 82.8987 136.956 90.2722 142.187 96.1683C144.616 99.0132 147.647 101.283 151.06 102.813C154.474 104.343 158.185 105.096 161.925 105.017C166.259 105.105 170.56 104.243 174.525 102.49C178.419 100.606 181.817 97.8384 184.45 94.4073L190.026 98.5201C183.484 107.709 173.993 112.304 161.553 112.304ZM159.918 38.6837C156.754 38.6215 153.613 39.2257 150.699 40.457C147.784 41.6883 145.161 43.5191 143.001 45.8305C138.418 50.5944 135.63 56.9943 134.638 65.0302H182.884V64.0898C182.638 56.5856 180.433 50.475 176.269 45.758C174.238 43.4407 171.717 41.6037 168.89 40.3802C166.062 39.1567 162.997 38.5772 159.918 38.6837Z" fill="#003E92"/>
<path d="M206.252 71.0917C206.252 58.9657 209.04 49.3066 214.615 42.1143C220.19 34.9221 227.761 31.3245 237.327 31.3216C248.18 31.3216 256.455 35.4845 262.153 43.8104V0H271.003V110.858H262.675L262.303 100.467C256.603 108.36 248.227 112.306 237.175 112.304C232.844 112.417 228.548 111.49 224.649 109.6C220.749 107.71 217.36 104.913 214.766 101.442C209.091 94.1964 206.254 84.4165 206.256 72.1023L206.252 71.0917ZM215.246 72.6065C215.246 82.5663 217.303 90.4216 221.417 96.1726C225.531 101.924 231.33 104.799 238.813 104.799C249.766 104.799 257.546 100.107 262.155 90.7219V54.0594C257.549 43.9042 249.819 38.8265 238.962 38.8265C231.479 38.8265 225.657 41.6775 221.496 47.3794C217.335 53.0814 215.252 61.4904 215.246 72.6065Z" fill="#003E92"/>
<path d="M366.621 30.3193L367.28 39.3424C373.028 32.3647 380.736 28.8752 390.403 28.8737C398.93 28.8737 405.273 31.3047 409.433 36.1667C413.593 41.0286 415.724 48.293 415.828 57.9598V108.411H394.352V58.352C394.352 53.9155 393.359 50.6962 391.374 48.694C389.388 46.6918 386.093 45.6907 381.487 45.6907C378.746 45.5674 376.025 46.2052 373.624 47.5336C371.224 48.8619 369.238 50.8288 367.887 53.2165V108.411H346.4V30.3193H366.621Z" fill="#003E92"/>
<path d="M466.327 93.0397C469.828 93.1951 473.266 92.0657 475.993 89.864C477.215 88.8234 478.193 87.5282 478.86 86.0692C479.527 84.6102 479.867 83.0229 479.856 81.4187H500C499.988 86.6009 498.436 91.6627 495.542 95.9617C492.558 100.415 488.406 103.96 483.541 106.211C478.274 108.682 472.516 109.928 466.698 109.858C455.2 109.858 446.132 106.309 439.494 99.2111C432.855 92.1133 429.533 82.3088 429.527 69.7977V68.4256C429.527 56.3941 432.822 46.795 439.413 39.6284C446.004 32.4618 455.049 28.8756 466.546 28.8697C476.61 28.8697 484.677 31.6489 490.747 37.2073C496.818 42.7657 499.902 50.1623 499.999 59.397H479.856C479.906 55.7214 478.521 52.1712 475.993 49.5017C474.709 48.2229 473.174 47.224 471.484 46.5681C469.794 45.9123 467.987 45.6136 466.176 45.6911C461.17 45.6911 457.391 47.4633 454.84 51.0078C452.288 54.5523 451.014 60.2974 451.017 68.2433V70.4139C451.017 78.4622 452.28 84.2448 454.806 87.7614C457.331 91.2781 461.172 93.0375 466.327 93.0397Z" fill="#003E92"/>
<path d="M302.443 7.91786C302.443 7.91786 322.63 -3.3967 328.611 7.35653C330.467 10.8047 328.378 23.7165 313.258 32.053C311.756 32.834 294.162 42.5865 287.059 31.7894C285.564 29.4606 285.636 18.224 302.443 7.91786Z" fill="#E50019"/>
<path d="M327.515 26.9405C327.515 26.9405 330.701 26.2463 328.987 29.9614C328.987 29.9614 321.992 57.8128 320.443 76.7443C320.206 80.443 320.3 95.1025 322.195 100.613C322.195 100.613 324.927 102.041 323.481 102.796C321.993 103.443 305.827 112.403 290.296 111.945C290.296 111.945 288.367 110.797 290.947 108.747C290.947 108.747 298.813 106.892 302.646 94.4664C303.116 92.599 305.179 61.6993 299.448 54.0954C299.448 54.0954 297.251 51.8424 289.653 50.2199C289.653 50.2199 289.653 48.3602 291.388 48.5546C293.066 48.8655 302.879 48.8655 314.139 41.1705C319.634 37.5211 324.212 32.6511 327.515 26.9405Z" fill="#003E92"/>
</svg>
